<svg xmlns="http://www.w3.org/2000/svg" viewBox="0 0 24 24" fill="none">
  <rect width="24" height="24" rx="6" fill="#6E8B5C"/>
  <g stroke="#F5EFE2" stroke-linecap="round" stroke-linejoin="round" stroke-width="1.6">
    <path d="M12 3.5v6"/>
    <path d="M3 11h18"/>
    <path d="M4 11.6c.5 4.6 3.7 7.4 8 7.4s7.5-2.8 8-7.4"/>
  </g>
  <path d="M12 6c-2.2 0-3.6 1.1-3.6 3.1 1.7 0 3.2-1 3.6-3.1Z" fill="#F5EFE2"/>
  <path d="M12 7.6c2.2 0 3.6 1 3.6 2.8-1.7 0-3.2-.9-3.6-2.8Z" fill="#F5EFE2"/>
  <path d="M4 11.6c.5 4.6 3.7 7.4 8 7.4s7.5-2.8 8-7.4Z" fill="#F5EFE2" fill-opacity="0.14"/>
</svg>
